<?xml version="1.0" encoding="UTF-8" standalone="no"?>
<svg
   xmlns:dc="http://purl.org/dc/elements/1.1/"
   xmlns:cc="http://creativecommons.org/ns#"
   xmlns:rdf="http://www.w3.org/1999/02/22-rdf-syntax-ns#"
   xmlns:svg="http://www.w3.org/2000/svg"
   xmlns="http://www.w3.org/2000/svg"
   xmlns:sodipodi="http://sodipodi.sourceforge.net/DTD/sodipodi-0.dtd"
   xmlns:inkscape="http://www.inkscape.org/namespaces/inkscape"
   id="svg4306"
   width="22"
   height="22"
   version="1.1"
   style="enable-background:new"
   sodipodi:docname="maximize.svg"
   inkscape:version="0.92.4 (5da689c313, 2019-01-14)">
  <metadata
     id="metadata24">
    <rdf:RDF>
      <cc:Work
         rdf:about="">
        <dc:format>image/svg+xml</dc:format>
        <dc:type
           rdf:resource="http://purl.org/dc/dcmitype/StillImage" />
      </cc:Work>
    </rdf:RDF>
  </metadata>
  <defs
     id="defs22" />
  <sodipodi:namedview
     pagecolor="#ffffff"
     bordercolor="#666666"
     borderopacity="1"
     objecttolerance="10"
     gridtolerance="10"
     guidetolerance="10"
     inkscape:pageopacity="0"
     inkscape:pageshadow="2"
     inkscape:window-width="1920"
     inkscape:window-height="1019"
     id="namedview20"
     showgrid="false"
     inkscape:zoom="3.7926638"
     inkscape:cx="-38.144941"
     inkscape:cy="25.150122"
     inkscape:window-x="0"
     inkscape:window-y="0"
     inkscape:window-maximized="1"
     inkscape:current-layer="svg4306" />
  <g
     id="pressed-center">
    <rect
       style="opacity:0.001;fill:#000000;fill-opacity:1;fill-rule:nonzero;stroke:none;stroke-width:2;stroke-linecap:round;stroke-linejoin:round;stroke-miterlimit:4;stroke-dasharray:none;stroke-opacity:1"
       id="rect4164"
       width="22"
       height="22"
       x="46"
       y="0" />
    <path
       id="rect4139"
       d="m 53,7 v 2 6 h 8 V 9 7 Z m 2,2 h 4 v 3 1 h -4 v -1 z"
       style="opacity:1;fill:#00c7f0;fill-opacity:1;fill-rule:evenodd;stroke:none;stroke-width:2;stroke-linecap:butt;stroke-linejoin:round;stroke-miterlimit:4;stroke-dasharray:none;stroke-dashoffset:478.43673706;stroke-opacity:0.75" />
  </g>
  <g
     id="hover-center">
    <rect
       style="opacity:0.001;fill:#000000;fill-opacity:1;fill-rule:nonzero;stroke:none;stroke-width:2;stroke-linecap:round;stroke-linejoin:round;stroke-miterlimit:4;stroke-dasharray:none;stroke-opacity:1"
       id="rect4208"
       width="22"
       height="22"
       x="23"
       y="0" />
    <path
       id="rect4214"
       d="m 30,7 v 2 6 h 8 V 9 7 Z m 2,2 h 4 v 3 1 h -4 v -1 z"
       style="opacity:1;fill:#008080;fill-opacity:1;fill-rule:evenodd;stroke:none;stroke-width:2;stroke-linecap:butt;stroke-linejoin:round;stroke-miterlimit:4;stroke-dasharray:none;stroke-dashoffset:478.43673706;stroke-opacity:0.75" />
  </g>
  <g
     id="active-center">
    <rect
       id="rect4266"
       width="22"
       height="22"
       x="0"
       y="0"
       style="opacity:0.001;fill:#000000;fill-opacity:1;fill-rule:nonzero;stroke:none;stroke-width:2;stroke-linecap:round;stroke-linejoin:round;stroke-miterlimit:4;stroke-dasharray:none;stroke-opacity:1" />
    <g
       id="g827">
      <path
         d="M 7 7 L 7 9 L 7 15 L 15 15 L 15 9 L 15 7 L 7 7 z M 9 9 L 13 9 L 13 12 L 13 13 L 9 13 L 9 12 L 9 9 z"
         id="path4268"
         style="opacity:1;fill:#00c7f1;fill-opacity:1;fill-rule:evenodd;stroke:none;stroke-width:2;stroke-linecap:butt;stroke-linejoin:round;stroke-miterlimit:4;stroke-dasharray:none;stroke-dashoffset:478.43673706;stroke-opacity:0.75" />
    </g>
  </g>
  <g
     id="inactive-center"
     transform="translate(69,0)">
    <rect
       id="rect4180"
       width="22"
       height="22"
       x="0"
       y="0"
       style="opacity:0.001;fill:#000000;fill-opacity:1;fill-rule:nonzero;stroke:none;stroke-width:2;stroke-linecap:round;stroke-linejoin:round;stroke-miterlimit:4;stroke-dasharray:none;stroke-opacity:1" />
    <path
       style="opacity:0.6;fill:#9955ff;fill-opacity:1;fill-rule:evenodd;stroke:none;stroke-width:2;stroke-linecap:butt;stroke-linejoin:round;stroke-miterlimit:4;stroke-dasharray:none;stroke-dashoffset:478.43673706;stroke-opacity:0.75"
       id="rect4139-3"
       d="M 76 7 L 76 9 L 76 15 L 84 15 L 84 9 L 84 7 L 76 7 z M 78 9 L 82 9 L 82 12 L 82 13 L 78 13 L 78 12 L 78 9 z"
       transform="translate(-69)" />
  </g>
  <g
     id="deactivated-center"
     transform="translate(92,0)">
    <rect
       id="rect4278"
       width="22"
       height="22"
       x="0"
       y="0"
       style="opacity:0.001;fill:#000000;fill-opacity:1;fill-rule:nonzero;stroke:none;stroke-width:2;stroke-linecap:round;stroke-linejoin:round;stroke-miterlimit:4;stroke-dasharray:none;stroke-opacity:1" />
    <path
       style="opacity:0.6;fill:#9955ff;fill-opacity:1;fill-rule:evenodd;stroke:none;stroke-width:2;stroke-linecap:butt;stroke-linejoin:round;stroke-miterlimit:4;stroke-dasharray:none;stroke-dashoffset:478.43673706;stroke-opacity:0.75"
       id="path4280"
       d="M 99 7 L 99 9 L 99 15 L 107 15 L 107 9 L 107 7 L 99 7 z M 101 9 L 105 9 L 105 12 L 105 13 L 101 13 L 101 12 L 101 9 z"
       transform="translate(-92)" />
  </g>
</svg>
